<svg width="32" height="21" viewBox="0 0 32 21" fill="none" xmlns="http://www.w3.org/2000/svg">
<path d="M0 20.6769L8.30031 0H11.9631L20.2929 20.6769H16.2462L14.5329 16.4234H5.70092L3.98769 20.6769H0ZM6.88246 13.056H13.3218L10.1022 4.78523L6.88246 13.056Z" fill="#EB724E"/>
<path d="M24.1232 0.213333C24.1952 0.304578 24.2394 0.416243 24.2499 0.533903C24.2605 0.651562 24.2369 0.769808 24.1822 0.873361C23.7553 1.68991 23.5323 2.6052 23.5338 3.53501C23.5338 6.62822 25.9546 9.13294 28.938 9.13294C29.3272 9.13294 29.706 9.09063 30.0701 9.00985C30.1817 8.98468 30.2979 8.99431 30.4043 9.03754C30.5107 9.08077 30.6025 9.15569 30.6682 9.25294C30.7377 9.35406 30.773 9.47624 30.7689 9.60047C30.7648 9.7247 30.7213 9.84403 30.6454 9.93989C30.0662 10.681 29.3355 11.2782 28.5066 11.6878C27.6777 12.0974 26.7716 12.3092 25.8541 12.3077C22.4498 12.3077 19.6923 9.45064 19.6923 5.93049C19.6923 3.28115 21.2534 1.00875 23.4762 0.0456342C23.587 -0.0031126 23.7099 -0.0131177 23.8265 0.0171219C23.9432 0.0473615 24.0473 0.116213 24.1232 0.213333Z" fill="#FF9929"/>
<path d="M28.1387 2.55307C28.1505 2.52643 28.1731 2.50324 28.2035 2.48681C28.2338 2.47038 28.2703 2.46153 28.3077 2.46153C28.3451 2.46153 28.3816 2.47038 28.4119 2.48681C28.4423 2.50324 28.4649 2.52643 28.4767 2.55307L28.7941 3.26796C28.936 3.58665 29.2691 3.83643 29.694 3.94286L30.6472 4.18095C30.6827 4.18977 30.7136 4.20677 30.7355 4.22952C30.7574 4.25227 30.7692 4.27962 30.7692 4.30769C30.7692 4.33575 30.7574 4.3631 30.7355 4.38585C30.7136 4.40861 30.6827 4.4256 30.6472 4.43442L29.694 4.67251C29.4844 4.72488 29.294 4.81313 29.1378 4.93028C28.9816 5.04742 28.864 5.19024 28.7941 5.34741L28.4767 6.0623C28.4649 6.08895 28.4423 6.11213 28.4119 6.12856C28.3816 6.145 28.3451 6.15384 28.3077 6.15384C28.2703 6.15384 28.2338 6.145 28.2035 6.12856C28.1731 6.11213 28.1505 6.08895 28.1387 6.0623L27.8213 5.34741C27.7514 5.19024 27.6338 5.04742 27.4776 4.93028C27.3214 4.81313 27.131 4.72488 26.9214 4.67251L25.9682 4.43442C25.9327 4.4256 25.9018 4.40861 25.8799 4.38585C25.858 4.3631 25.8462 4.33575 25.8462 4.30769C25.8462 4.27962 25.858 4.25227 25.8799 4.22952C25.9018 4.20677 25.9327 4.18977 25.9682 4.18095L26.9214 3.94286C27.131 3.89049 27.3214 3.80224 27.4776 3.6851C27.6338 3.56795 27.7514 3.42513 27.8213 3.26796L28.1387 2.55307Z" fill="#FF9929"/>
<path d="M30.7175 0.0165442C30.7023 0.0273057 30.6909 0.0425112 30.6849 0.0600466L30.526 0.536711C30.4552 0.749794 30.2883 0.916688 30.0752 0.98751L29.5985 1.1464C29.581 1.15248 29.5658 1.16387 29.555 1.17899C29.5443 1.19411 29.5385 1.21221 29.5385 1.23077C29.5385 1.24933 29.5443 1.26743 29.555 1.28255C29.5658 1.29767 29.581 1.30906 29.5985 1.31514L30.0752 1.47403C30.1802 1.50896 30.2756 1.56789 30.3539 1.64615C30.4321 1.7244 30.491 1.81982 30.526 1.92483L30.6849 2.40149C30.6909 2.41903 30.7023 2.43423 30.7175 2.44499C30.7326 2.45576 30.7507 2.46154 30.7692 2.46154C30.7878 2.46154 30.8059 2.45576 30.821 2.44499C30.8361 2.43423 30.8475 2.41903 30.8536 2.40149L31.0125 1.92483C31.0474 1.81982 31.1064 1.7244 31.1846 1.64615C31.2629 1.56789 31.3583 1.50896 31.4633 1.47403L31.94 1.31514C31.9575 1.30906 31.9727 1.29767 31.9835 1.28255C31.9942 1.26743 32 1.24933 32 1.23077C32 1.21221 31.9942 1.19411 31.9835 1.17899C31.9727 1.16387 31.9575 1.15248 31.94 1.1464L31.4633 0.98751C31.2502 0.916688 31.0833 0.749794 31.0125 0.536711L30.8536 0.0600466C30.8475 0.0425112 30.8361 0.0273057 30.821 0.0165442C30.8059 0.00578274 30.7878 0 30.7692 0C30.7507 0 30.7326 0.00578274 30.7175 0.0165442Z" fill="#FF9929"/>
</svg>
